<?xml version="1.0" encoding="utf-8"?>
<!-- Generator: Adobe Illustrator 23.0.4, SVG Export Plug-In . SVG Version: 6.00 Build 0)  -->
<svg version="1.1" id="Layer_1" xmlns="http://www.w3.org/2000/svg" xmlns:xlink="http://www.w3.org/1999/xlink" x="0px" y="0px"
	 viewBox="0 0 185.6 91.1" style="enable-background:new 0 0 185.6 91.1;" xml:space="preserve">
<path d="M36.1,87.4h-13c-1.8,0-3.2-1.5-3.2-3.2V6.3c0-1.8,1.5-3.2,3.2-3.2h13c1.8,0,3.2,1.5,3.2,3.2v77.8
	C39.3,85.9,37.9,87.4,36.1,87.4z"/>
<path d="M100.9,87.2H88c-1.8,0-3.2-1.5-3.2-3.2V6.3c0-1.8,1.5-3.2,3.2-3.2h13c1.8,0,3.2,1.5,3.2,3.2v77.6
	C104.2,85.7,102.7,87.2,100.9,87.2z"/>
<path d="M75,87.4H62c-1.8,0-3.2-1.5-3.2-3.2V48.4c0-1.8,1.5-3.2,3.2-3.2h13c1.8,0,3.2,1.5,3.2,3.2v35.7C78.2,85.9,76.8,87.4,75,87.4
	z"/>
<path d="M75,42H62c-1.8,0-3.2-1.5-3.2-3.2v-13c0-1.8,1.5-3.2,3.2-3.2h13c1.8,0,3.2,1.5,3.2,3.2v13C78.2,40.5,76.8,42,75,42z"/>
<path d="M58.8,6.3v13c0,1.8-1.5,3.2-3.2,3.2H3.7c-1.8,0-3.2-1.5-3.2-3.2v-13c0-1.8,1.5-3.2,3.2-3.2h51.9C57.3,3.1,58.8,4.5,58.8,6.3
	z"/>
<path d="M123.6,71.1v13c0,1.8-1.5,3.2-3.2,3.2H88c-1.8,0-3.2-1.5-3.2-3.2V67.9h35.7C122.2,67.9,123.6,69.4,123.6,71.1z"/>
<path d="M182.2,6.7l-10.3-0.1c-1.9-0.1-3.6-0.4-5-1c-0.3-0.1-0.6-0.2-1-0.4c-0.6-0.2-1.2-0.5-1.9-0.7c-0.1,0-0.2-0.1-0.4-0.1
	C161,3.7,159,3.2,156,3.2c-0.8,0-1.7,0-2.5,0c-4.9,0.1-9.7,1.3-14,3.7c-0.2,0.1-0.3,0.2-0.5,0.3c-0.1,0-0.2,0.1-0.2,0.1
	c-1.1,0.6-2.1,1.3-3.1,2.1c-0.5,0.4-1,0.8-1.5,1.2c-0.3,0.3-0.6,0.6-0.9,0.8c-0.5,0.5-1,0.9-1.4,1.4c-0.2,0.3-0.5,0.5-0.7,0.8
	c-0.5,0.6-0.9,1.1-1.4,1.7c-0.2,0.3-0.4,0.5-0.6,0.8c-1.2,1.8-2.3,3.7-3.1,5.7c0,0.1-0.1,0.2-0.1,0.3c-0.4,1-0.7,1.9-1,2.9
	c0,0.1-0.1,0.2-0.1,0.3c-0.3,1.1-0.6,2.1-0.7,3.2c0,0,0,0.1,0,0.1c0,0,0,0,0,0c-0.3,1.7-0.4,3.4-0.4,5c0,1.7,0.1,3.1,0.1,4.3
	c0,2.7,0,3.7,0,5.2c0,0.7,0,1.3,0,1.9c0,0.6,0,1.2,0,1.9c0,1.5,0,3.5,0,6.2c0,1.2,0,1.9-0.1,3.6c0,1.6,0.1,3.3,0.4,5c0,0,0,0,0,0
	c0,0,0,0.1,0,0.1c0.2,1.1,0.4,2.1,0.7,3.2c0,0.1,0.1,0.2,0.1,0.3c0.3,1,0.6,2,1,2.9c0,0.1,0.1,0.2,0.1,0.3c0.8,2,1.9,3.9,3.1,5.7
	c0.2,0.3,0.4,0.5,0.6,0.8c0.4,0.5,0.8,1,1.2,1.5c0.3,0.3,0.6,0.7,0.9,1c0.5,0.5,0.9,0.9,1.4,1.4c0.3,0.3,0.6,0.6,0.9,0.8
	c0.5,0.4,1,0.8,1.5,1.2c1,0.8,2,1.4,3.1,2.1c0.1,0.1,0.2,0.1,0.3,0.2c0.2,0.1,0.3,0.2,0.5,0.3c4.1,2.3,8.7,3.5,13.3,3.7
	c0.3,0,0.5,0,0.8,0c0,0,0.1,0,0.1,0l2.4,0c2.9,0,5-0.5,7.7-1.3c0.1,0,0.2-0.1,0.4-0.1c0.6-0.2,1.3-0.4,1.9-0.7
	c0.3-0.1,0.6-0.2,1-0.4c1.4-0.6,3.1-0.9,5-1l10.4-0.1c1.6,0,2.9-1.3,2.8-2.9V9.6C185.1,8,183.8,6.7,182.2,6.7z M165.5,56.6
	c0,6.3-4.4,11.5-10.7,11.5c-6.3,0-11.5-5.1-11.5-11.5V33.9c0-6.3,5.1-11.5,11.5-11.5c6.3,0,10.7,5.1,10.7,11.5V56.6z"/>
</svg>
